<?xml version="1.0" encoding="UTF-8"?>
<svg id="_レイヤー_1" data-name="レイヤー 1" xmlns="http://www.w3.org/2000/svg" viewBox="0 0 2500 500">
  <defs>
    <style>
      .cls-1 {
        fill: #222626;
      }
    </style>
  </defs>
  <g>
    <path d="M320.39,309.5l-2.72-11.9c19.72-1.81,34.25-7.08,43.6-15.81,9.35-8.73,14.02-21.42,14.02-38.08v-5.61h-77.18v-11.9h148.58v11.9h-57.8v5.61c0,13.26-2.58,24.56-7.73,33.91-5.16,9.35-12.81,16.69-22.95,22.02-10.14,5.33-22.75,8.61-37.83,9.86ZM314.1,188.12v-11.9h91.97v11.9h-91.97ZM408.28,202.23c-1.81-4.76-3.88-9.38-6.21-13.85-2.32-4.48-4.79-8.87-7.4-13.18-2.61-4.31-5.5-8.56-8.67-12.75l10.88-6.8c4.76,6.12,9.1,12.72,13.01,19.81,3.91,7.08,7.22,14.14,9.94,21.17l-11.56,5.61ZM442.96,200.19c-1.81-4.76-3.8-9.41-5.95-13.94-2.15-4.53-4.56-8.95-7.23-13.26-2.66-4.31-5.52-8.61-8.58-12.92l10.37-6.12c4.65,6.23,8.9,12.92,12.75,20.06,3.85,7.14,7.08,14.28,9.69,21.42l-11.05,4.76Z"/>
    <path d="M542.07,239.97c-10.54-2.61-20.34-4.7-29.41-6.29-9.07-1.59-18.36-2.95-27.88-4.08l2.55-11.73c9.75,1.25,19.12,2.69,28.13,4.33,9.01,1.64,18.79,3.71,29.33,6.2l-2.72,11.56ZM493.62,305.25l-1.7-12.58c23.57.57,43.44-1.95,59.58-7.56s28.96-14.48,38.42-26.61c9.46-12.12,15.78-27.77,18.96-46.92l12.92,1.87c-3.74,21.19-10.82,38.62-21.25,52.28-10.43,13.66-24.51,23.74-42.24,30.26-17.74,6.52-39.3,9.61-64.69,9.26ZM552.1,195.77c-10.77-2.49-20.88-4.53-30.35-6.12-9.46-1.59-19.29-3-29.5-4.25l2.55-11.73c10.31,1.25,20.2,2.69,29.67,4.33,9.46,1.64,19.58,3.71,30.34,6.21l-2.72,11.56ZM594.43,205.63c-1.81-4.76-3.88-9.38-6.21-13.86-2.32-4.48-4.79-8.87-7.4-13.17-2.61-4.31-5.5-8.56-8.67-12.75l10.88-6.8c4.76,6.12,9.09,12.72,13,19.8,3.91,7.08,7.23,14.14,9.94,21.17l-11.56,5.61ZM629.11,203.59c-1.81-4.76-3.8-9.41-5.95-13.94-2.15-4.53-4.56-8.95-7.23-13.26-2.66-4.31-5.52-8.61-8.58-12.92l10.37-6.12c4.65,6.23,8.9,12.92,12.75,20.06,3.85,7.14,7.08,14.28,9.69,21.42l-11.05,4.76Z"/>
    <path d="M682.83,307.63l-3.57-11.9c25.16-1.7,45.67-6.6,61.54-14.71,15.87-8.1,27.57-19.89,35.1-35.36,7.54-15.47,11.19-35.11,10.96-58.91l3.74,3.74-87.55-7.82,4.76-3.23c-4.87,12.69-11.05,24.54-18.53,35.53-7.48,10.99-16.09,20.91-25.84,29.75l-8.67-9.01c6.23-5.67,12.04-11.96,17.42-18.87,5.38-6.91,10.23-14.31,14.54-22.18,4.31-7.88,7.88-15.95,10.71-24.23l103.02,9.01c.11,21.08-2.04,39.36-6.46,54.83-4.42,15.47-11.39,28.36-20.91,38.67-9.52,10.31-21.73,18.3-36.64,23.97-14.9,5.67-32.78,9.24-53.63,10.71ZM775.65,253.06c-12.13-4.99-24.45-9.58-36.97-13.77-12.52-4.19-25.47-8.22-38.85-12.07l3.91-12.07c13.15,3.51,26.01,7.42,38.59,11.73,12.58,4.31,25.05,9.07,37.4,14.28l-4.08,11.9Z"/>
    <path d="M838.72,306.95l-6.63-11.05c6.35-3.74,11.65-7.76,15.9-12.07,4.25-4.31,7.62-9.35,10.11-15.13,2.49-5.78,4.25-12.75,5.27-20.91,1.02-8.16,1.53-17.96,1.53-29.41v-48.62h13.09v49.47c0,12.47-.68,23.29-2.04,32.47-1.36,9.18-3.54,17.17-6.54,23.97-3,6.8-7.03,12.72-12.07,17.77s-11.25,9.55-18.61,13.51ZM917.6,305.25v-135.49h13.26v129.54l-8.16-6.8c9.75,0,18.05-1.1,24.9-3.31,6.86-2.21,12.5-5.78,16.92-10.71,4.42-4.93,7.88-11.48,10.37-19.63,2.49-8.16,4.19-18.19,5.1-30.09l12.41,1.7c-1.02,13.15-3.12,24.48-6.29,34-3.17,9.52-7.57,17.28-13.18,23.29-5.61,6.01-12.55,10.43-20.82,13.26-8.27,2.83-18.08,4.25-29.41,4.25h-5.1Z"/>
    <path d="M1127.89,302.87c-3.29,0-7.45-.14-12.5-.42-5.04-.28-10.2-.65-15.47-1.1-5.27-.46-10-.96-14.19-1.53l1.19-12.24c3.74.57,7.93,1.08,12.58,1.53,4.65.45,9.21.79,13.68,1.02,4.48.23,8.19.34,11.14.34,3.17,0,5.86-.31,8.07-.93,2.21-.62,4.08-1.93,5.61-3.91,1.53-1.98,2.72-5.07,3.57-9.26.85-4.19,1.5-9.86,1.96-17,.45-7.14.82-16.15,1.1-27.03.28-10.88.42-23.97.42-39.27l6.8,7.31h-131.07v-11.9h137.36v5.61c0,16.43-.14,30.54-.43,42.33-.28,11.79-.76,21.67-1.44,29.67s-1.7,14.42-3.06,19.29c-1.36,4.87-3.15,8.58-5.35,11.13s-4.96,4.25-8.25,5.1c-3.29.85-7.2,1.27-11.73,1.27ZM1029.97,306.1l-8.5-9.35c6.91-5.21,12.86-10.65,17.85-16.32,4.99-5.67,9.12-12.04,12.41-19.12,3.29-7.08,5.89-15.27,7.82-24.57,1.93-9.29,3.31-20.12,4.17-32.47.85-12.35,1.27-26.69,1.27-43.01h12.58c0,17-.48,32.04-1.44,45.13-.96,13.09-2.52,24.65-4.68,34.68-2.15,10.03-5.07,18.9-8.75,26.61-3.68,7.71-8.22,14.68-13.6,20.91-5.38,6.23-11.76,12.07-19.12,17.51Z"/>
    <path d="M1197.42,306.95l-6.63-11.05c6.35-3.74,11.65-7.76,15.9-12.07,4.25-4.31,7.62-9.35,10.11-15.13,2.49-5.78,4.25-12.75,5.27-20.91,1.02-8.16,1.53-17.96,1.53-29.41v-48.62h13.09v49.47c0,12.47-.68,23.29-2.04,32.47-1.36,9.18-3.54,17.17-6.54,23.97-3,6.8-7.03,12.72-12.07,17.77s-11.25,9.55-18.61,13.51ZM1276.3,305.25v-135.49h13.26v129.54l-8.16-6.8c9.75,0,18.05-1.1,24.91-3.31,6.86-2.21,12.5-5.78,16.92-10.71,4.42-4.93,7.88-11.48,10.37-19.63,2.49-8.16,4.19-18.19,5.1-30.09l12.41,1.7c-1.02,13.15-3.12,24.48-6.29,34-3.17,9.52-7.57,17.28-13.17,23.29-5.61,6.01-12.55,10.43-20.83,13.26-8.27,2.83-18.08,4.25-29.41,4.25h-5.1Z"/>
    <path d="M1375.92,242.86v-11.9h148.58v11.9h-148.58ZM1389.69,194.92v-11.9c7.93,0,16.12-.23,24.56-.68,8.44-.45,16.94-1.08,25.5-1.87,8.56-.79,16.97-1.81,25.25-3.06,8.27-1.25,16.18-2.63,23.71-4.16,7.54-1.53,14.48-3.15,20.83-4.85l3.57,11.56c-8.16,2.27-17.14,4.33-26.95,6.21-9.8,1.87-20.09,3.46-30.86,4.76-10.77,1.3-21.7,2.29-32.81,2.97-11.11.68-22.04,1.02-32.81,1.02ZM1397.85,308.31l-2.89-11.9c11.45-.79,20.97-2.44,28.56-4.93,7.59-2.49,13.57-6.21,17.94-11.13,4.36-4.93,7.48-11.45,9.35-19.55,1.87-8.1,2.81-18.16,2.81-30.17v-46.92h13.26v46.92c0,13.6-1.19,25.1-3.57,34.51-2.38,9.41-6.26,17.14-11.64,23.2-5.38,6.06-12.5,10.68-21.33,13.86-8.84,3.17-19.67,5.21-32.47,6.12Z"/>
    <path d="M1568.36,242.18l-2.38-12.24,122.23-24.14,2.38,12.24-122.23,24.14ZM1613.92,310.18l-21.08-113.22,13.09-2.38,21.08,113.22-13.09,2.38ZM1655.23,277.37l-7.82-9.69c4.31-2.04,8.27-4.9,11.9-8.58,3.63-3.68,6.83-7.82,9.61-12.41,2.78-4.59,4.96-9.43,6.54-14.54,1.58-5.1,2.38-10.14,2.38-15.13l12.75,1.02c-.11,5.89-1.11,11.84-2.98,17.85-1.87,6.01-4.42,11.73-7.65,17.17-3.23,5.44-6.94,10.26-11.14,14.45-4.19,4.19-8.73,7.48-13.6,9.86Z"/>
    <path d="M1739.72,245.58v-13.26h138.38v13.26h-138.38Z"/>
    <path d="M1910.57,264.96l-4.25-14.62c4.76-6.23,8.84-13.06,12.24-20.49,3.4-7.42,6.26-15.7,8.58-24.82,2.32-9.12,4.11-19.35,5.36-30.68l11.9,1.19c-1.13,10.65-2.86,20.71-5.18,30.17-2.32,9.46-5.19,18.27-8.58,26.43l-.34-2.38c-2.83,7.37-5.92,13.97-9.27,19.8-3.34,5.84-6.83,10.96-10.46,15.38ZM1912.27,179.96v-11.22h59.5v11.22h-59.5ZM1923.32,310.35v-89.25h48.45v75.14h-36.21v-11.05h24.65v-52.7h-24.65v77.86h-12.24ZM1983.5,313.41l-9.35-9.86c3.17-3.17,5.95-6.66,8.33-10.46,2.38-3.8,4.45-8.25,6.21-13.35,1.76-5.1,3.2-11.28,4.33-18.53,1.13-7.25,1.98-16.04,2.55-26.35.57-10.31.85-22.55.85-36.72v-18.19h-17.68v-11.22h87.72v11.22h-18.19v45.73h19.89v11.22h-19.89v75.14h-12.92v-75.14h-58.65v-11.22h58.65v-45.73h-26.18v18.19c0,14.85-.31,27.77-.94,38.76-.62,11-1.59,20.49-2.89,28.48-1.3,7.99-2.97,14.88-5.01,20.65-2.04,5.78-4.45,10.85-7.23,15.22-2.78,4.36-5.98,8.41-9.6,12.15Z"/>
    <path d="M2095.7,314.26l-6.12-10.71c8.61-2.72,16.09-5.67,22.44-8.84,6.35-3.17,11.73-6.77,16.15-10.79,4.42-4.02,7.96-8.64,10.62-13.85,2.66-5.21,4.59-11.11,5.78-17.68,1.19-6.57,1.79-14.05,1.79-22.44h13.26c0,11.45-1.16,21.59-3.48,30.43-2.32,8.84-6.01,16.6-11.05,23.29-5.04,6.69-11.64,12.52-19.8,17.51-8.16,4.99-18.02,9.35-29.58,13.09ZM2099.44,237.25l-3.23-10.71c8.73-1.93,16.24-4.17,22.53-6.72,6.29-2.55,11.45-5.47,15.47-8.75,4.02-3.29,7.03-6.86,9.01-10.71,1.98-3.85,2.97-7.99,2.97-12.41h-36.89v22.95h-12.75v-34h64.6v-18.36h13.6v18.36h64.6v28.9h-12.75v-17.85h-36.72v30.09c0,2.49.28,3.99.85,4.5.57.51,2.55.88,5.95,1.1,1.25.11,2.63.2,4.17.25,1.53.06,3.03.08,4.5.08,1.59,0,3.12-.03,4.59-.08,1.47-.06,2.83-.14,4.08-.25,3.63-.23,6.21-.54,7.73-.93,1.53-.4,2.55-1.45,3.06-3.15.51-1.7.93-4.53,1.28-8.5l12.75,1.36c-.46,4.87-.99,8.73-1.62,11.56-.62,2.83-1.73,4.96-3.32,6.38-1.59,1.42-3.88,2.35-6.88,2.81-3,.45-7.17.79-12.5,1.02-1.59,0-3.26.06-5.01.17-1.76.11-3.54.17-5.36.17-1.7,0-3.46-.03-5.27-.08-1.81-.06-3.51-.14-5.1-.25-3.63-.23-6.57-.51-8.84-.85-2.27-.34-3.97-.88-5.1-1.62-1.13-.74-1.93-1.84-2.38-3.32-.45-1.47-.68-3.34-.68-5.61v-34.85h-17.51c-.23,5.78-1.59,11.19-4.08,16.24-2.49,5.04-6.21,9.66-11.13,13.86-4.93,4.19-11.13,7.9-18.62,11.13-7.48,3.23-16.15,5.92-26.01,8.08ZM2217.42,310.86c-5.21,0-9.41-.17-12.58-.51-3.17-.34-5.58-.99-7.23-1.96-1.64-.96-2.75-2.38-3.31-4.25-.57-1.87-.85-4.33-.85-7.4v-39.44h-92.48v-11.22h105.74v48.62c0,1.47.17,2.55.51,3.23.34.68,1.44,1.13,3.31,1.36,1.87.23,4.96.34,9.27.34,3.4,0,6.09-.2,8.07-.6,1.98-.4,3.49-1.42,4.5-3.06,1.02-1.64,1.81-4.45,2.38-8.42.57-3.97,1.13-9.46,1.7-16.49l12.24,1.53c-.57,7.25-1.19,13.23-1.87,17.93-.68,4.71-1.64,8.44-2.89,11.22-1.25,2.78-2.92,4.82-5.01,6.12-2.1,1.3-4.9,2.12-8.42,2.46-3.51.34-7.88.51-13.09.51Z"/>
    <path d="M2272.16,309.16v-11.05h68v-23.12h-56.1v-10.88h56.1v-21.25h13.6v21.25h54.91v10.88h-54.91v23.12h68v11.05h-149.6ZM2273.35,206.65v-32.81h66.81v-15.3h13.6v15.3h66.81v32.81h-12.92v-22.1h-121.38v22.1h-12.92ZM2280.66,246.09l-.51-10.88c11.79-.34,24.08-.88,36.89-1.62,12.81-.74,25.92-1.67,39.35-2.8,13.43-1.13,26.78-2.38,40.04-3.74l1.02,10.54c-13.37,1.47-26.8,2.8-40.29,4-13.49,1.19-26.66,2.15-39.53,2.89-12.86.74-25.19,1.28-36.97,1.62ZM2285.25,208.01v-10.37h123.42v10.37h-123.42ZM2315.34,241.33l-11.22-4.93c3.29-5.33,6.49-10.91,9.6-16.75,3.12-5.83,6.09-11.93,8.93-18.27l12.07,4.08c-3.06,6.35-6.21,12.52-9.43,18.53-3.23,6.01-6.54,11.79-9.95,17.34ZM2405.44,251.53c-5.1-6.46-10.71-13.26-16.83-20.4-6.12-7.14-12.35-14.17-18.7-21.08l10.54-5.78c6.35,6.8,12.67,13.8,18.96,21,6.29,7.2,11.93,13.97,16.92,20.32l-10.88,5.95Z"/>
  </g>
  <g>
    <path d="M312.98,394.49c-2.72,0-5.9-.31-9.55-.92v-55.9c3.64-.62,6.83-.92,9.55-.92,4.72,0,8.56.9,11.51,2.7,2.95,1.8,5.11,4.65,6.47,8.55,1.36,3.9,2.04,9.01,2.04,15.32v4.62c0,6.26-.68,11.36-2.04,15.28-1.36,3.93-3.52,6.79-6.47,8.59-2.95,1.8-6.79,2.69-11.51,2.69ZM306.36,390.1c1.23.31,2.44.53,3.62.65,1.18.13,2.31.19,3.39.19,3.8,0,6.85-.78,9.16-2.35,2.31-1.57,3.99-4.04,5.04-7.43,1.05-3.39,1.58-7.85,1.58-13.4v-4.31c0-5.54-.53-10.01-1.58-13.4-1.05-3.39-2.73-5.86-5.04-7.43-2.31-1.56-5.36-2.35-9.16-2.35-1.08,0-2.21.07-3.39.19-1.18.13-2.39.35-3.62.65l.85-1.46v51.9l-.85-1.46Z"/>
    <path d="M361.72,393.72v-36.58h-14.63v-3.46h18.48v40.04h-3.85ZM362.57,344.75c-1.28,0-2.32-.39-3.12-1.16-.8-.77-1.19-1.77-1.19-3,0-1.33.4-2.37,1.19-3.12.8-.74,1.83-1.12,3.12-1.12s2.32.37,3.12,1.12c.8.74,1.19,1.76,1.19,3.04s-.4,2.31-1.19,3.08c-.8.77-1.84,1.16-3.12,1.16Z"/>
    <path d="M390.06,407.2c7.34,0,12.81-1.36,16.4-4.08,3.59-2.72,5.39-6.85,5.39-12.4v-34.65l1.23,2.39c-1.49-.72-3.05-1.24-4.7-1.58-1.64-.33-3.44-.5-5.39-.5-2.98,0-5.33.46-7.05,1.39-1.72.92-2.93,2.52-3.62,4.77-.69,2.26-1.04,5.36-1.04,9.32,0,4.31.36,7.7,1.08,10.16.72,2.46,1.95,4.21,3.7,5.24,1.74,1.03,4.16,1.54,7.24,1.54,1.85,0,3.55-.17,5.12-.5,1.56-.33,3.12-.78,4.66-1.35l1.16,3.31c-1.44.57-3.02,1.03-4.74,1.39-1.72.36-3.73.54-6.04.54-3.9,0-7.02-.65-9.36-1.96-2.34-1.31-4.02-3.45-5.04-6.43-1.03-2.98-1.54-6.96-1.54-11.94,0-4.72.5-8.47,1.5-11.24,1-2.77,2.67-4.75,5.01-5.93,2.33-1.18,5.43-1.77,9.28-1.77,4.88,0,8.98.82,12.32,2.46v35.19c0,6.67-2.14,11.69-6.43,15.05-4.29,3.36-10.66,5.04-19.13,5.04v-3.47Z"/>
    <path d="M446.88,393.72v-36.58h-14.63v-3.46h18.48v40.04h-3.85ZM447.73,344.75c-1.28,0-2.32-.39-3.12-1.16-.8-.77-1.19-1.77-1.19-3,0-1.33.4-2.37,1.19-3.12.8-.74,1.83-1.12,3.12-1.12s2.32.37,3.12,1.12c.8.74,1.19,1.76,1.19,3.04s-.4,2.31-1.19,3.08c-.8.77-1.84,1.16-3.12,1.16Z"/>
    <path d="M493.7,394.49c-4.36,0-7.48-.9-9.36-2.69-1.87-1.8-2.81-4.83-2.81-9.09v-25.56h-10.78v-3.46h10.78v-13.09h3.85v13.09h16.48v3.46h-16.48v24.87c0,3.39.64,5.74,1.93,7.05,1.28,1.31,3.62,1.96,7.01,1.96,1.39,0,2.71-.1,3.97-.31,1.26-.21,2.45-.51,3.58-.92v3.54c-1.34.41-2.67.71-4,.89-1.34.18-2.72.27-4.16.27Z"/>
    <path d="M530.89,394.49c-4.83,0-8.65-1.15-11.47-3.46-2.82-2.31-4.23-5.42-4.23-9.32,0-4.21,1.67-7.37,5-9.47,3.34-2.1,8.29-3.16,14.86-3.16h6.31v3.23h-6.31c-10.73,0-16.09,3.11-16.09,9.32,0,2.93,1.05,5.25,3.16,6.97,2.1,1.72,4.98,2.58,8.62,2.58,1.85,0,3.68-.22,5.51-.65,1.82-.44,3.35-.99,4.58-1.66l-1.31,2.46v-23.72c0-3.08-.24-5.44-.73-7.08-.49-1.64-1.41-2.76-2.77-3.35-1.36-.59-3.3-.89-5.81-.89-1.59,0-3.15.09-4.66.27-1.51.18-2.96.45-4.35.81-1.39.36-2.72.82-4,1.39v-3.46c1.74-.77,3.78-1.36,6.12-1.77,2.33-.41,4.74-.62,7.2-.62,3.23,0,5.79.44,7.66,1.31,1.87.87,3.2,2.38,3.97,4.5s1.16,5.07,1.16,8.82v24.49c-1.54.72-3.45,1.31-5.74,1.77-2.28.46-4.5.69-6.66.69Z"/>
    <path d="M581.25,394.49c-4,0-6.85-.9-8.55-2.69-1.69-1.8-2.54-4.83-2.54-9.09v-41.73h-13.09v-3.46h16.94v44.51c0,3.39.56,5.74,1.69,7.05,1.13,1.31,3.18,1.96,6.16,1.96,1.33,0,2.53-.1,3.58-.31,1.05-.21,2.12-.51,3.2-.92v3.54c-1.23.41-2.45.71-3.66.89-1.21.18-2.45.27-3.73.27Z"/>
    <path d="M662.95,394.49c-6.62,0-11.64-2.24-15.05-6.74-3.41-4.49-5.12-11.1-5.12-19.83v-4.62c0-8.73,1.6-15.33,4.81-19.83,3.21-4.49,7.92-6.74,14.13-6.74,1.8,0,3.5.18,5.12.54,1.62.36,3.07.9,4.35,1.62v18.25h-3.77v-17.94l1.92,3.16c-2.11-1.39-4.67-2.08-7.7-2.08-4.93,0-8.66,1.95-11.2,5.85-2.54,3.9-3.81,9.68-3.81,17.33v4.31c0,7.75,1.39,13.55,4.16,17.4,2.77,3.85,6.93,5.77,12.47,5.77,1.44,0,2.86-.13,4.27-.38,1.41-.26,2.63-.59,3.66-1v3.7c-1.13.41-2.43.72-3.89.92-1.46.21-2.91.31-4.35.31Z"/>
    <path d="M701.29,394.49c-3.65,0-6.52-.44-8.62-1.31-2.11-.87-3.58-2.37-4.43-4.5-.85-2.13-1.27-5.07-1.27-8.82v-26.18h3.7v26.03c0,2.98.31,5.29.92,6.93.62,1.64,1.69,2.79,3.23,3.43,1.54.64,3.7.96,6.47.96,1.44,0,2.75-.08,3.93-.23,1.18-.15,2.32-.41,3.43-.77,1.1-.36,2.22-.82,3.35-1.39l-1.46,2.46v-37.42h3.7v38.35c-3.59,1.64-7.91,2.46-12.94,2.46Z"/>
    <path d="M751.57,394.49c-4,0-6.85-.9-8.55-2.69-1.69-1.8-2.54-4.83-2.54-9.09v-41.73h-13.09v-3.46h16.94v44.51c0,3.39.56,5.74,1.69,7.05,1.13,1.31,3.18,1.96,6.16,1.96,1.33,0,2.53-.1,3.58-.31,1.05-.21,2.12-.51,3.2-.92v3.54c-1.23.41-2.45.71-3.66.89-1.21.18-2.45.27-3.73.27Z"/>
    <path d="M791.77,394.49c-4.36,0-7.48-.9-9.36-2.69-1.87-1.8-2.81-4.83-2.81-9.09v-25.56h-10.78v-3.46h10.78v-13.09h3.85v13.09h16.48v3.46h-16.48v24.87c0,3.39.64,5.74,1.93,7.05,1.28,1.31,3.62,1.96,7.01,1.96,1.39,0,2.71-.1,3.97-.31,1.26-.21,2.45-.51,3.58-.92v3.54c-1.34.41-2.67.71-4,.89-1.34.18-2.72.27-4.16.27Z"/>
    <path d="M829.04,394.49c-3.65,0-6.52-.44-8.62-1.31-2.11-.87-3.58-2.37-4.43-4.5-.85-2.13-1.27-5.07-1.27-8.82v-26.18h3.7v26.03c0,2.98.31,5.29.92,6.93.62,1.64,1.69,2.79,3.23,3.43,1.54.64,3.7.96,6.47.96,1.44,0,2.75-.08,3.93-.23,1.18-.15,2.32-.41,3.43-.77,1.1-.36,2.22-.82,3.35-1.39l-1.46,2.46v-37.42h3.7v38.35c-3.59,1.64-7.91,2.46-12.94,2.46Z"/>
    <path d="M862.61,357.15c2.41-.87,5-1.62,7.78-2.23,2.77-.62,5.52-1.1,8.24-1.46,2.72-.36,5.21-.54,7.47-.54v3.46c-3.08,0-6.51.33-10.28,1-3.77.67-7.23,1.57-10.36,2.69l1-1.92v35.57h-3.85v-36.58Z"/>
    <path d="M916.12,394.49c-5.75,0-10.02-1.58-12.82-4.74-2.8-3.16-4.2-7.99-4.2-14.51v-3.08c0-6.62,1.17-11.49,3.5-14.59,2.34-3.11,5.97-4.66,10.9-4.66s8.62,1.55,10.93,4.66c2.31,3.11,3.46,7.97,3.46,14.59v3.16h-26.95v-3.23h24.33l-1.08,1.23v-1.08c0-5.65-.85-9.71-2.54-12.2-1.69-2.49-4.42-3.73-8.16-3.73s-6.47,1.25-8.16,3.73c-1.69,2.49-2.54,6.56-2.54,12.2v2.93c0,3.8.46,6.87,1.39,9.2.92,2.34,2.39,4.04,4.39,5.12,2,1.08,4.59,1.62,7.78,1.62,1.54,0,3.1-.1,4.7-.31,1.59-.21,3.18-.54,4.77-1v3.46c-1.49.36-3.08.65-4.77.89-1.69.23-3.34.35-4.93.35Z"/>
    <path d="M986.19,393.72v-56.21h3.85v52.67h23.79v3.54h-27.64Z"/>
    <path d="M1041.86,394.49c-4.83,0-8.65-1.15-11.47-3.46-2.82-2.31-4.23-5.42-4.23-9.32,0-4.21,1.67-7.37,5-9.47,3.34-2.1,8.29-3.16,14.86-3.16h6.31v3.23h-6.31c-10.73,0-16.09,3.11-16.09,9.32,0,2.93,1.05,5.25,3.16,6.97,2.1,1.72,4.98,2.58,8.62,2.58,1.85,0,3.68-.22,5.51-.65,1.82-.44,3.35-.99,4.58-1.66l-1.31,2.46v-23.72c0-3.08-.24-5.44-.73-7.08-.49-1.64-1.41-2.76-2.77-3.35-1.36-.59-3.3-.89-5.81-.89-1.59,0-3.15.09-4.66.27-1.51.18-2.96.45-4.35.81-1.39.36-2.72.82-4,1.39v-3.46c1.74-.77,3.78-1.36,6.12-1.77,2.33-.41,4.74-.62,7.2-.62,3.23,0,5.79.44,7.66,1.31,1.87.87,3.2,2.38,3.97,4.5s1.16,5.07,1.16,8.82v24.49c-1.54.72-3.45,1.31-5.74,1.77-2.28.46-4.5.69-6.66.69Z"/>
    <path d="M1082.9,394.49c-2.46,0-4.72-.23-6.78-.69-2.05-.46-3.85-1.05-5.39-1.77v-54.52h3.77v53.59l-1.16-2.31c2.82,1.49,6.08,2.23,9.78,2.23,3.03,0,5.4-.56,7.12-1.69,1.72-1.13,2.95-3.02,3.7-5.66.74-2.64,1.12-6.22,1.12-10.74,0-4.21-.32-7.52-.96-9.93-.64-2.41-1.73-4.12-3.27-5.12s-3.67-1.5-6.39-1.5c-1.9,0-3.73.22-5.51.65-1.77.44-3.45,1.12-5.04,2.04l-1.31-3.16c1.64-1.03,3.5-1.78,5.58-2.27,2.08-.49,4.25-.73,6.51-.73,3.49,0,6.26.64,8.32,1.92,2.05,1.28,3.54,3.39,4.47,6.31.92,2.93,1.39,6.85,1.39,11.78,0,5.24-.53,9.43-1.58,12.59-1.05,3.16-2.75,5.44-5.08,6.85-2.34,1.41-5.43,2.12-9.28,2.12Z"/>
    <path d="M1126.41,394.49c-1.39,0-2.53-.42-3.43-1.27-.9-.85-1.35-1.96-1.35-3.35s.45-2.58,1.35-3.43c.9-.85,2.04-1.27,3.43-1.27s2.53.42,3.43,1.27c.9.85,1.35,1.99,1.35,3.43s-.45,2.5-1.35,3.35c-.9.85-2.04,1.27-3.43,1.27Z"/>
    <path d="M1194.48,393.72l14.55-56.21h5.08l14.55,56.21h-3.93l-13.01-51.9h-.31l-13.01,51.9h-3.93ZM1201.1,376.55v-3.39h20.94v3.39h-20.94Z"/>
    <path d="M1255.92,393.72v-36.58h-14.63v-3.46h18.48v40.04h-3.85ZM1256.77,344.75c-1.28,0-2.32-.39-3.12-1.16-.8-.77-1.19-1.77-1.19-3,0-1.33.4-2.37,1.19-3.12s1.83-1.12,3.12-1.12,2.32.37,3.12,1.12,1.19,1.76,1.19,3.04-.4,2.31-1.19,3.08c-.8.77-1.84,1.16-3.12,1.16Z"/>
    <path d="M1299.74,394.49c-11.29,0-16.94-6.42-16.94-19.25v-3.08c0-12.83,5.67-19.25,17.02-19.25,3.23,0,6.13.41,8.7,1.23v15.48h-3.7v-14.78l1.62,2.54c-1.08-.31-2.21-.55-3.39-.73-1.18-.18-2.36-.27-3.54-.27-4.42,0-7.67,1.28-9.78,3.85-2.11,2.57-3.16,6.6-3.16,12.09v2.77c0,3.7.47,6.73,1.42,9.09.95,2.36,2.41,4.09,4.39,5.2,1.98,1.1,4.53,1.66,7.66,1.66,1.44,0,2.86-.1,4.27-.31,1.41-.21,2.81-.54,4.2-1v3.54c-1.34.36-2.73.65-4.2.89-1.46.23-2.99.35-4.58.35Z"/>
    <path d="M1325.61,393.72v-56.21h3.7v56.21h-3.7ZM1349.33,367.7c0-3.03-.31-5.35-.92-6.97-.62-1.62-1.67-2.75-3.16-3.39-1.49-.64-3.65-.96-6.47-.96-2.11,0-3.99.17-5.66.5-1.67.33-3.35.94-5.04,1.81l-.54-3.62c1.69-.77,3.45-1.32,5.27-1.66,1.82-.33,3.91-.5,6.28-.5,3.59,0,6.4.44,8.43,1.31,2.03.87,3.45,2.38,4.27,4.5s1.23,5.07,1.23,8.82v26.18h-3.7v-26.03Z"/>
    <path d="M1383.67,393.72v-36.58h-14.63v-3.46h18.48v40.04h-3.85ZM1384.51,344.75c-1.28,0-2.32-.39-3.12-1.16-.8-.77-1.19-1.77-1.19-3,0-1.33.4-2.37,1.19-3.12s1.83-1.12,3.12-1.12,2.32.37,3.12,1.12,1.19,1.76,1.19,3.04-.4,2.31-1.19,3.08c-.8.77-1.84,1.16-3.12,1.16Z"/>
    <path d="M1453.81,393.72v-3.46h11.32v-49.28h-11.32v-3.46h26.49v3.46h-11.32v49.28h11.32v3.46h-26.49Z"/>
    <path d="M1495.93,355.38c1.85-.87,3.82-1.5,5.93-1.89,2.1-.38,4.49-.58,7.16-.58,3.64,0,6.52.44,8.62,1.31,2.1.87,3.58,2.38,4.43,4.5s1.27,5.07,1.27,8.82v26.18h-3.7v-26.03c0-3.03-.31-5.35-.92-6.97-.62-1.62-1.68-2.75-3.2-3.39-1.51-.64-3.68-.96-6.51-.96-1.39,0-2.68.08-3.89.23-1.21.15-2.36.4-3.46.73-1.1.33-2.25.81-3.43,1.42l1.39-2.46v37.42h-3.7v-38.35Z"/>
    <path d="M1550.76,394.49c-2.11,0-4.08-.18-5.93-.54-1.85-.36-3.65-.9-5.39-1.62v-3.46c1.85.72,3.68,1.26,5.51,1.62,1.82.36,3.73.54,5.74.54,3.8,0,6.65-.62,8.55-1.85,1.9-1.23,2.85-3.05,2.85-5.47,0-1.28-.35-2.43-1.04-3.43s-1.82-1.98-3.39-2.93c-1.57-.95-3.68-1.91-6.35-2.89-4.67-1.69-7.96-3.44-9.86-5.24-1.9-1.8-2.85-4.05-2.85-6.78,0-3.23,1.19-5.63,3.58-7.2,2.39-1.56,6.04-2.35,10.97-2.35,1.75,0,3.46.12,5.16.35,1.69.23,3.77.66,6.24,1.27v11.24h-3.77v-10.78l2,2.62c-2.11-.46-3.85-.78-5.24-.96-1.39-.18-2.77-.27-4.16-.27-3.75,0-6.52.51-8.32,1.54-1.8,1.03-2.7,2.57-2.7,4.62,0,1.18.33,2.26,1,3.23.67.98,1.76,1.91,3.27,2.81,1.51.9,3.61,1.84,6.28,2.81,4.77,1.8,8.12,3.62,10.05,5.47,1.92,1.85,2.89,4.18,2.89,7.01,0,3.49-1.27,6.13-3.81,7.93s-6.3,2.69-11.28,2.69Z"/>
    <path d="M1600.81,394.49c-4.36,0-7.48-.9-9.36-2.69-1.87-1.8-2.81-4.83-2.81-9.09v-25.56h-10.78v-3.46h10.78v-13.09h3.85v13.09h16.48v3.46h-16.48v24.87c0,3.39.64,5.74,1.92,7.05,1.28,1.31,3.62,1.96,7.01,1.96,1.39,0,2.71-.1,3.97-.31,1.26-.21,2.45-.51,3.58-.92v3.54c-1.33.41-2.67.71-4,.89-1.34.18-2.72.27-4.16.27Z"/>
    <path d="M1639.15,393.72v-36.58h-14.63v-3.46h18.48v40.04h-3.85ZM1640,344.75c-1.28,0-2.32-.39-3.12-1.16-.8-.77-1.19-1.77-1.19-3,0-1.33.4-2.37,1.19-3.12s1.83-1.12,3.12-1.12,2.32.37,3.12,1.12,1.19,1.76,1.19,3.04-.4,2.31-1.19,3.08c-.8.77-1.84,1.16-3.12,1.16Z"/>
    <path d="M1685.97,394.49c-4.36,0-7.48-.9-9.36-2.69-1.87-1.8-2.81-4.83-2.81-9.09v-25.56h-10.78v-3.46h10.78v-13.09h3.85v13.09h16.48v3.46h-16.48v24.87c0,3.39.64,5.74,1.92,7.05,1.28,1.31,3.62,1.96,7.01,1.96,1.39,0,2.71-.1,3.97-.31,1.26-.21,2.45-.51,3.58-.92v3.54c-1.33.41-2.67.71-4,.89-1.34.18-2.72.27-4.16.27Z"/>
    <path d="M1723.24,394.49c-3.65,0-6.52-.44-8.62-1.31-2.11-.87-3.58-2.37-4.43-4.5-.85-2.13-1.27-5.07-1.27-8.82v-26.18h3.7v26.03c0,2.98.31,5.29.92,6.93.62,1.64,1.69,2.79,3.23,3.43,1.54.64,3.7.96,6.47.96,1.44,0,2.75-.08,3.93-.23,1.18-.15,2.32-.41,3.43-.77,1.1-.36,2.22-.82,3.35-1.39l-1.46,2.46v-37.42h3.7v38.35c-3.59,1.64-7.91,2.46-12.94,2.46Z"/>
    <path d="M1771.13,394.49c-4.36,0-7.48-.9-9.36-2.69-1.87-1.8-2.81-4.83-2.81-9.09v-25.56h-10.78v-3.46h10.78v-13.09h3.85v13.09h16.48v3.46h-16.48v24.87c0,3.39.64,5.74,1.92,7.05,1.28,1.31,3.62,1.96,7.01,1.96,1.39,0,2.71-.1,3.97-.31,1.26-.21,2.45-.51,3.58-.92v3.54c-1.33.41-2.67.71-4,.89-1.34.18-2.72.27-4.16.27Z"/>
    <path d="M1810.32,394.49c-5.75,0-10.02-1.58-12.82-4.74-2.8-3.16-4.2-7.99-4.2-14.51v-3.08c0-6.62,1.17-11.49,3.5-14.59,2.33-3.11,5.97-4.66,10.9-4.66s8.62,1.55,10.93,4.66c2.31,3.11,3.47,7.97,3.47,14.59v3.16h-26.95v-3.23h24.33l-1.08,1.23v-1.08c0-5.65-.85-9.71-2.54-12.2-1.69-2.49-4.42-3.73-8.16-3.73s-6.47,1.25-8.16,3.73c-1.69,2.49-2.54,6.56-2.54,12.2v2.93c0,3.8.46,6.87,1.39,9.2.92,2.34,2.39,4.04,4.39,5.12s4.59,1.62,7.78,1.62c1.54,0,3.11-.1,4.7-.31,1.59-.21,3.18-.54,4.77-1v3.46c-1.49.36-3.08.65-4.77.89-1.69.23-3.34.35-4.93.35Z"/>
    <path d="M1892.87,394.49c-5.08,0-8.82-1.55-11.2-4.66-2.39-3.11-3.58-7.97-3.58-14.59v-3.08c0-6.62,1.19-11.49,3.58-14.59,2.39-3.11,6.12-4.66,11.2-4.66s8.82,1.55,11.2,4.66c2.39,3.11,3.58,7.97,3.58,14.59v3.08c0,6.62-1.19,11.49-3.58,14.59-2.39,3.11-6.12,4.66-11.2,4.66ZM1892.87,391.03c3.9,0,6.71-1.24,8.43-3.73,1.72-2.49,2.58-6.56,2.58-12.2v-2.77c0-5.65-.86-9.71-2.58-12.2-1.72-2.49-4.53-3.73-8.43-3.73s-6.65,1.25-8.39,3.73c-1.75,2.49-2.62,6.56-2.62,12.2v2.77c0,5.65.87,9.71,2.62,12.2,1.74,2.49,4.54,3.73,8.39,3.73Z"/>
    <path d="M1931.6,393.72v-35.04h-12.47v-3.46h12.47v-8.39c0-4.21,1-7.33,3-9.36,2-2.03,5.03-3.04,9.09-3.04,1.28,0,2.58.12,3.89.35,1.31.23,2.71.58,4.2,1.04v3.54c-1.44-.56-2.79-.95-4.04-1.15s-2.48-.31-3.66-.31c-3.03,0-5.22.71-6.58,2.12s-2.04,3.73-2.04,6.97v8.24h16.32v3.46h-16.32v35.04h-3.85Z"/>
    <path d="M2018.69,393.72v-52.67h-14.01v-3.54h31.88v3.54h-14.01v52.67h-3.85Z"/>
    <path d="M2065.81,394.49c-5.75,0-10.02-1.58-12.82-4.74-2.8-3.16-4.2-7.99-4.2-14.51v-3.08c0-6.62,1.17-11.49,3.5-14.59,2.33-3.11,5.97-4.66,10.9-4.66s8.62,1.55,10.93,4.66c2.31,3.11,3.47,7.97,3.47,14.59v3.16h-26.95v-3.23h24.33l-1.08,1.23v-1.08c0-5.65-.85-9.71-2.54-12.2-1.69-2.49-4.42-3.73-8.16-3.73s-6.47,1.25-8.16,3.73c-1.69,2.49-2.54,6.56-2.54,12.2v2.93c0,3.8.46,6.87,1.39,9.2.92,2.34,2.39,4.04,4.39,5.12s4.59,1.62,7.78,1.62c1.54,0,3.11-.1,4.7-.31,1.59-.21,3.18-.54,4.77-1v3.46c-1.49.36-3.08.65-4.77.89-1.69.23-3.34.35-4.93.35Z"/>
    <path d="M2108.78,394.49c-11.29,0-16.94-6.42-16.94-19.25v-3.08c0-12.83,5.67-19.25,17.02-19.25,3.23,0,6.13.41,8.7,1.23v15.48h-3.7v-14.78l1.62,2.54c-1.08-.31-2.21-.55-3.39-.73-1.18-.18-2.36-.27-3.54-.27-4.42,0-7.67,1.28-9.78,3.85-2.11,2.57-3.16,6.6-3.16,12.09v2.77c0,3.7.47,6.73,1.42,9.09.95,2.36,2.41,4.09,4.39,5.2,1.98,1.1,4.53,1.66,7.66,1.66,1.44,0,2.86-.1,4.27-.31,1.41-.21,2.81-.54,4.2-1v3.54c-1.34.36-2.73.65-4.2.89-1.46.23-2.99.35-4.58.35Z"/>
    <path d="M2134.65,393.72v-56.21h3.7v56.21h-3.7ZM2158.36,367.7c0-3.03-.31-5.35-.92-6.97-.62-1.62-1.67-2.75-3.16-3.39-1.49-.64-3.65-.96-6.47-.96-2.11,0-3.99.17-5.66.5-1.67.33-3.35.94-5.04,1.81l-.54-3.62c1.69-.77,3.45-1.32,5.27-1.66,1.82-.33,3.91-.5,6.28-.5,3.59,0,6.4.44,8.43,1.31,2.03.87,3.45,2.38,4.27,4.5s1.23,5.07,1.23,8.82v26.18h-3.7v-26.03Z"/>
    <path d="M2177.23,355.38c1.85-.87,3.82-1.5,5.93-1.89,2.1-.38,4.49-.58,7.16-.58,3.64,0,6.52.44,8.62,1.31,2.1.87,3.58,2.38,4.43,4.5s1.27,5.07,1.27,8.82v26.18h-3.7v-26.03c0-3.03-.31-5.35-.92-6.97-.62-1.62-1.68-2.75-3.2-3.39-1.51-.64-3.68-.96-6.51-.96-1.39,0-2.68.08-3.89.23-1.21.15-2.36.4-3.46.73-1.1.33-2.25.81-3.43,1.42l1.39-2.46v37.42h-3.7v-38.35Z"/>
    <path d="M2233.52,394.49c-5.08,0-8.82-1.55-11.2-4.66-2.39-3.11-3.58-7.97-3.58-14.59v-3.08c0-6.62,1.19-11.49,3.58-14.59,2.39-3.11,6.12-4.66,11.2-4.66s8.82,1.55,11.2,4.66c2.39,3.11,3.58,7.97,3.58,14.59v3.08c0,6.62-1.19,11.49-3.58,14.59-2.39,3.11-6.12,4.66-11.2,4.66ZM2233.52,391.03c3.9,0,6.71-1.24,8.43-3.73,1.72-2.49,2.58-6.56,2.58-12.2v-2.77c0-5.65-.86-9.71-2.58-12.2-1.72-2.49-4.53-3.73-8.43-3.73s-6.65,1.25-8.39,3.73c-1.75,2.49-2.62,6.56-2.62,12.2v2.77c0,5.65.87,9.71,2.62,12.2,1.74,2.49,4.54,3.73,8.39,3.73Z"/>
    <path d="M2284.49,394.49c-4,0-6.85-.9-8.55-2.69-1.69-1.8-2.54-4.83-2.54-9.09v-41.73h-13.09v-3.46h16.94v44.51c0,3.39.56,5.74,1.69,7.05,1.13,1.31,3.18,1.96,6.16,1.96,1.33,0,2.53-.1,3.58-.31,1.05-.21,2.12-.51,3.2-.92v3.54c-1.23.41-2.45.71-3.66.89-1.21.18-2.45.27-3.74.27Z"/>
    <path d="M2318.68,394.49c-5.08,0-8.82-1.55-11.2-4.66-2.39-3.11-3.58-7.97-3.58-14.59v-3.08c0-6.62,1.19-11.49,3.58-14.59,2.39-3.11,6.12-4.66,11.2-4.66s8.82,1.55,11.2,4.66c2.39,3.11,3.58,7.97,3.58,14.59v3.08c0,6.62-1.19,11.49-3.58,14.59-2.39,3.11-6.12,4.66-11.2,4.66ZM2318.68,391.03c3.9,0,6.71-1.24,8.43-3.73,1.72-2.49,2.58-6.56,2.58-12.2v-2.77c0-5.65-.86-9.71-2.58-12.2-1.72-2.49-4.53-3.73-8.43-3.73s-6.65,1.25-8.39,3.73c-1.75,2.49-2.62,6.56-2.62,12.2v2.77c0,5.65.87,9.71,2.62,12.2,1.74,2.49,4.54,3.73,8.39,3.73Z"/>
    <path d="M2348.79,407.2c7.34,0,12.81-1.36,16.4-4.08,3.59-2.72,5.39-6.85,5.39-12.4v-34.65l1.23,2.39c-1.49-.72-3.05-1.24-4.7-1.58-1.64-.33-3.44-.5-5.39-.5-2.98,0-5.33.46-7.05,1.39s-2.93,2.52-3.62,4.77c-.69,2.26-1.04,5.36-1.04,9.32,0,4.31.36,7.7,1.08,10.16.72,2.46,1.95,4.21,3.7,5.24,1.74,1.03,4.16,1.54,7.24,1.54,1.85,0,3.55-.17,5.12-.5,1.57-.33,3.12-.78,4.66-1.35l1.16,3.31c-1.44.57-3.02,1.03-4.74,1.39-1.72.36-3.73.54-6.04.54-3.9,0-7.02-.65-9.36-1.96-2.34-1.31-4.02-3.45-5.04-6.43-1.03-2.98-1.54-6.96-1.54-11.94,0-4.72.5-8.47,1.5-11.24,1-2.77,2.67-4.75,5-5.93,2.34-1.18,5.43-1.77,9.28-1.77,4.88,0,8.98.82,12.32,2.46v35.19c0,6.67-2.14,11.69-6.43,15.05-4.29,3.36-10.66,5.04-19.13,5.04v-3.47Z"/>
    <path d="M2389.06,407.2c2.41,0,4.45-.53,6.12-1.58,1.67-1.05,3.1-2.67,4.31-4.85,1.21-2.18,2.3-4.92,3.27-8.2l.15,2.23-15.79-41.12h4.08l12.86,34.5h.31l12.09-34.5h4.08l-14.55,41.04c-1.18,3.28-2.52,6.13-4,8.55-1.49,2.41-3.27,4.25-5.35,5.51-2.08,1.26-4.61,1.89-7.58,1.89v-3.47Z"/>
  </g>
  <path class="cls-1" d="M188.51,94.78v90.92h-56.44c-31.17,0-56.44,25.27-56.44,56.44v106.63c0,31.17,25.27,56.44,56.44,56.44h56.44c31.17,0,56.44-25.27,56.44-56.44v-25.09h-56.44v4c0,11.65-9.44,21.09-21.09,21.09h-14.26c-11.65,0-21.09-9.44-21.09-21.09v-64.45c0-11.65,9.44-21.09,21.09-21.09h14.26c11.65,0,21.09,9.44,21.09,21.09v4h56.44v-25.09h0V94.78h-56.44Z"/>
</svg>